<?xml version="1.0" encoding="utf-8"?>
<!-- Generator: Adobe Illustrator 28.1.0, SVG Export Plug-In . SVG Version: 6.00 Build 0)  -->
<svg version="1.1" id="Layer_1" xmlns="http://www.w3.org/2000/svg" xmlns:xlink="http://www.w3.org/1999/xlink" x="0px" y="0px"
	 viewBox="0 0 330 60" style="enable-background:new 0 0 330 60;" xml:space="preserve">
<style type="text/css">
	.st0{fill:#182B49;}
	.st1{fill:#C69214;}
	.st2{fill:none;stroke:#182B49;stroke-miterlimit:10;}
	.st3{fill:#FFFFFF;}
	.st4{fill:none;stroke:#FFFFFF;stroke-miterlimit:10;}
</style>
<g>
	<g>
		<path class="st1" d="M8.7,17.5l-7.2-7.1C0.6,9.5,0,8.3,0,6.7V3.9c0-2.2,1.5-3.7,3.7-3.7h6.6c2.2,0,3.7,1.5,3.7,3.7v4.2H8.8V5.3
			c0-0.1,0-0.1-0.1-0.1H5.4c-0.1,0-0.1,0-0.1,0.1v1.5c0,0.1,0,0.2,0.1,0.2l7.2,7.1c0.8,0.8,1.4,2.1,1.4,3.7v3.3
			c0,2.2-1.5,3.7-3.7,3.7H3.7c-2.2,0-3.7-1.5-3.7-3.7v-4.2h5.2v2.9c0,0.1,0,0.1,0.1,0.1h3.3c0.1,0,0.1,0,0.1-0.1v-2
			C8.8,17.7,8.7,17.6,8.7,17.5z"/>
		<path class="st1" d="M27.3,22h-4.7l-0.5,2.8h-5.5l5.2-24.5H28l5.2,24.5h-5.5L27.3,22z M26.5,17.4L25,9.6l-0.1-0.9l-0.1,0.9
			l-1.4,7.8H26.5z"/>
		<path class="st1" d="M45.3,24.8l-3.8-12.2L41.4,12v12.7h-5.2V0.3h5.5l3.1,10.6l0.1,0.6V0.3h5.2v24.5H45.3z"/>
		<path class="st1" d="M71.9,24.8H61.6V0.3h10.3c2.2,0,3.7,1.5,3.7,3.7V21C75.6,23.2,74.1,24.8,71.9,24.8z M70.3,19.8V5.3
			c0-0.1,0-0.1-0.1-0.1h-3.4v14.7h3.4C70.3,19.9,70.3,19.8,70.3,19.8z"/>
		<path class="st1" d="M79,24.8V0.3h5.2v24.5H79z"/>
		<path class="st1" d="M87.5,24.8V0.3h12.2v4.9h-7V10H98v4.5h-5.2v5.3h7v4.9H87.5z"/>
		<path class="st1" d="M113,24.8h-6.6c-2.2,0-3.7-1.5-3.7-3.7V3.9c0-2.2,1.5-3.7,3.7-3.7h6.6c2.2,0,3.7,1.5,3.7,3.7v4.2h-5.2V5.3
			c0-0.1,0-0.1-0.1-0.1H108c-0.1,0-0.1,0-0.1,0.1v14.5c0,0.1,0,0.1,0.1,0.1h3.3c0.1,0,0.1,0,0.1-0.1v-4.1h-2.2v-4.9h7.4v10.4
			C116.7,23.3,115.2,24.8,113,24.8z"/>
		<path class="st1" d="M130.3,24.8h-6.6c-2.2,0-3.7-1.5-3.7-3.7V3.9c0-2.2,1.5-3.7,3.7-3.7h6.6c2.2,0,3.7,1.5,3.7,3.7v17.2
			C134,23.3,132.5,24.8,130.3,24.8z M128.7,5.2h-3.3c-0.1,0-0.1,0-0.1,0.1v14.5c0,0.1,0,0.1,0.1,0.1h3.3c0.1,0,0.1,0,0.1-0.1V5.3
			C128.8,5.2,128.7,5.2,128.7,5.2z"/>
		<path class="st0" d="M8.7,52.5l-7.2-7.1C0.6,44.5,0,43.3,0,41.7v-2.8c0-2.2,1.5-3.7,3.7-3.7h6.6c2.2,0,3.7,1.5,3.7,3.7v4.2H8.8
			v-2.9c0-0.1,0-0.1-0.1-0.1H5.4c-0.1,0-0.1,0-0.1,0.1v1.5c0,0.1,0,0.2,0.1,0.2l7.2,7.1c0.8,0.8,1.4,2.1,1.4,3.7v3.3
			c0,2.2-1.5,3.7-3.7,3.7H3.7c-2.2,0-3.7-1.5-3.7-3.7v-4.2h5.2v2.9c0,0.1,0,0.1,0.1,0.1h3.3c0.1,0,0.1,0,0.1-0.1v-2
			C8.8,52.6,8.7,52.6,8.7,52.5z"/>
		<path class="st0" d="M27.7,59.8h-6.6c-2.2,0-3.7-1.5-3.7-3.7V35.2h5.2v19.5c0,0.1,0,0.1,0.1,0.1H26c0.1,0,0.1,0,0.1-0.1V35.2h5.2
			v20.8C31.4,58.3,29.9,59.8,27.7,59.8z"/>
		<path class="st0" d="M45,50.6h-5v9.1h-5.2V35.2H45c2.2,0,3.7,1.5,3.7,3.7v8C48.7,49.1,47.3,50.6,45,50.6z M43.4,40.1H40v5.6h3.4
			c0.1,0,0.1,0,0.1-0.1v-5.4C43.5,40.2,43.5,40.1,43.4,40.1z"/>
		<path class="st0" d="M51.9,59.7V35.2h12.2v4.9h-7V45h5.2v4.5h-5.2v5.3h7v4.9H51.9z"/>
		<path class="st0" d="M75.9,59.7l-2.3-9.1h-1.3v9.1H67V35.2h10.3c2.2,0,3.7,1.5,3.7,3.7v8c0,1.7-0.9,3-2.4,3.5l2.8,9.3H75.9z
			 M72.3,45.7h3.4c0.1,0,0.1,0,0.1-0.1v-5.4c0-0.1,0-0.1-0.1-0.1h-3.4V45.7z"/>
		<path class="st0" d="M94.7,59.8h-6.6c-2.2,0-3.7-1.5-3.7-3.7V38.9c0-2.2,1.5-3.7,3.7-3.7h6.6c2.2,0,3.7,1.5,3.7,3.7v4.2h-5.2v-2.9
			c0-0.1,0-0.1-0.1-0.1h-3.3c-0.1,0-0.1,0-0.1,0.1v14.5c0,0.1,0,0.1,0.1,0.1H93c0.1,0,0.1,0,0.1-0.1v-2.9h5.2v4.2
			C98.4,58.3,96.9,59.8,94.7,59.8z"/>
		<path class="st0" d="M112,59.8h-6.6c-2.2,0-3.7-1.5-3.7-3.7V38.9c0-2.2,1.5-3.7,3.7-3.7h6.6c2.2,0,3.7,1.5,3.7,3.7v17.2
			C115.7,58.3,114.2,59.8,112,59.8z M110.4,40.1h-3.3c-0.1,0-0.1,0-0.1,0.1v14.5c0,0.1,0,0.1,0.1,0.1h3.3c0.1,0,0.1,0,0.1-0.1V40.2
			C110.5,40.2,110.4,40.1,110.4,40.1z"/>
		<path class="st0" d="M132.1,59.7V47.7l-0.1,0.6l-2.9,11.4h-2l-2.9-11.4l-0.1-0.6v12.1h-5.1V35.2h6l3,12.1l3-12.1h6.1v24.5H132.1z"
			/>
		<path class="st0" d="M150.9,50.6h-5v9.1h-5.2V35.2h10.3c2.2,0,3.7,1.5,3.7,3.7v8C154.6,49.1,153.1,50.6,150.9,50.6z M149.2,40.1
			h-3.4v5.6h3.4c0.1,0,0.1,0,0.1-0.1v-5.4C149.3,40.2,149.3,40.1,149.2,40.1z"/>
		<path class="st0" d="M168,59.8h-6.6c-2.2,0-3.7-1.5-3.7-3.7V35.2h5.2v19.5c0,0.1,0,0.1,0.1,0.1h3.3c0.1,0,0.1,0,0.1-0.1V35.2h5.2
			v20.8C171.7,58.3,170.2,59.8,168,59.8z"/>
		<path class="st0" d="M184.3,40.1v19.6H179V40.1h-4.4v-4.9h14v4.9H184.3z"/>
		<path class="st0" d="M191.6,59.7V35.2h12.2v4.9h-7V45h5.2v4.5h-5.2v5.3h7v4.9H191.6z"/>
		<path class="st0" d="M215.6,59.7l-2.3-9.1h-1.3v9.1h-5.2V35.2H217c2.2,0,3.7,1.5,3.7,3.7v8c0,1.7-0.9,3-2.4,3.5l2.8,9.3H215.6z
			 M211.9,45.7h3.4c0.1,0,0.1,0,0.1-0.1v-5.4c0-0.1,0-0.1-0.1-0.1h-3.4V45.7z"/>
		<path class="st0" d="M242.4,59.8h-6.6c-2.2,0-3.7-1.5-3.7-3.7V38.9c0-2.2,1.5-3.7,3.7-3.7h6.6c2.2,0,3.7,1.5,3.7,3.7v4.2h-5.2
			v-2.9c0-0.1,0-0.1-0.1-0.1h-3.3c-0.1,0-0.1,0-0.1,0.1v14.5c0,0.1,0,0.1,0.1,0.1h3.3c0.1,0,0.1,0,0.1-0.1v-2.9h5.2v4.2
			C246.1,58.3,244.6,59.8,242.4,59.8z"/>
		<path class="st0" d="M249.5,59.7V35.2h12.2v4.9h-7V45h5.2v4.5h-5.2v5.3h7v4.9H249.5z"/>
		<path class="st0" d="M273.8,59.7L270,47.5l-0.1-0.5v12.7h-5.2V35.2h5.5l3.1,10.6l0.1,0.6V35.2h5.2v24.5H273.8z"/>
		<path class="st0" d="M291.2,40.1v19.6h-5.2V40.1h-4.4v-4.9h14v4.9H291.2z"/>
		<path class="st0" d="M298.5,59.7V35.2h12.2v4.9h-7V45h5.2v4.5h-5.2v5.3h7v4.9H298.5z"/>
		<path class="st0" d="M322.5,59.7l-2.3-9.1h-1.3v9.1h-5.2V35.2h10.3c2.2,0,3.7,1.5,3.7,3.7v8c0,1.7-0.9,3-2.4,3.5l2.8,9.3H322.5z
			 M318.9,45.7h3.4c0.1,0,0.1,0,0.1-0.1v-5.4c0-0.1,0-0.1-0.1-0.1h-3.4V45.7z"/>
	</g>
</g>
</svg>
